<svg xmlns="http://www.w3.org/2000/svg" viewBox="0 0 245.49 52.8"><g style="isolation:isolate"><path d="M81,42.86l1.74-.49c-.38,2.17-.74,4.12-1,6.07-.49,3-3.81,4.67-6.13,3a6.39,6.39,0,0,1-1-1.23l.22-.39a8.59,8.59,0,0,1,1.52.65,2.27,2.27,0,0,0,2.24.3,2.23,2.23,0,0,0,1.66-2c-1.27.7-2.52,1.12-3.75.44a3.63,3.63,0,0,1-1.34-1.38c-.71-1.27-.06-3.57,1.17-4.57C77.81,42.07,79.86,41.71,81,42.86Zm-4.87,3.45a2,2,0,0,0,2.06,2.14,3.39,3.39,0,0,0,2.82-3,2.2,2.2,0,0,0-2-2.14A3,3,0,0,0,76.16,46.31Z" fill="#047580"/><path d="M134.7,43c.18-.94.35-1.86.53-2.85h1.22c-.24,1.53-.45,3-.71,4.52s-.58,3-.91,4.69L133.29,49a3.58,3.58,0,0,1-3.53.32c-1.74-.82-2-3-1-4.78C129.9,42.56,132.15,41.32,134.7,43Zm-.41,2.48a2.17,2.17,0,0,0-2.07-2.18,3.66,3.66,0,0,0-2.84,3,2.32,2.32,0,0,0,2,2.14A3.1,3.1,0,0,0,134.29,45.52Z" fill="#047580"/><path d="M219.63,42.49v.56c2.29-1.15,4.44-1.53,5.45,1.45.53,1.56-.63,3.62-2.17,4.54a3.7,3.7,0,0,1-4.28-.41l-.59,3h-1.19c.49-2.84,1-5.64,1.43-8.44C218.43,42.15,219.11,42.56,219.63,42.49Zm4.22,3a2,2,0,0,0-2-2.19A3.44,3.44,0,0,0,219,46.25a2.21,2.21,0,0,0,2,2.18A3,3,0,0,0,223.85,45.52Z" fill="#047580"/><path d="M197.56,40.17c-.22,1.3-.42,2.46-.64,3.71h3.78a17.68,17.68,0,0,0,.47-2.57c0-1.06.45-1.39,1.52-1.09-.53,3-1.05,6-1.59,9h-1.28c.19-1.27.39-2.56.61-4-1.19,0-2.22,0-3.23,0-.25,0-.61.43-.68.72-.23,1.05-.35,2.12-.53,3.24h-1.3c.46-2.82.91-5.65,1.39-8.47C196.23,39.9,196.9,40.12,197.56,40.17Z" fill="#047580"/><path d="M113.7,42.71c-.63-.3-1.29-.56-1.9-.9a3.24,3.24,0,0,0-2.57-.41,4.39,4.39,0,0,0-3.13,3.81,2.65,2.65,0,0,0,1.36,2.64c1.24.72,2.33.28,3.45-.27a7.35,7.35,0,0,1,2-.66,4.28,4.28,0,0,1-3.91,2.58c-3.32.27-4.83-2.28-4.09-5.42.6-2.56,4-4.74,6.47-4a3.4,3.4,0,0,1,2.45,2.21Z" fill="#047580"/><path d="M99,46.32H93.09a1.78,1.78,0,0,0,1.09,1.87,2.43,2.43,0,0,0,2.51-.46,4.07,4.07,0,0,1,1.58-.59,3.76,3.76,0,0,1-4.34,2.36,3,3,0,0,1-2.13-3.7,4.5,4.5,0,0,1,4.1-3.57A2.91,2.91,0,0,1,99,45.35,7.77,7.77,0,0,0,99,46.32Zm-5.62-1.14h4.28A1.81,1.81,0,0,0,96,43.36,2.65,2.65,0,0,0,93.41,45.18Z" fill="#047580"/><path d="M181.35,46.31h-5.88a1.63,1.63,0,0,0,2.08,2c.59-.22,1.08-.69,1.67-.94a5.94,5.94,0,0,1,1.44-.23,3.9,3.9,0,0,1-3,2.39,2.92,2.92,0,0,1-3.31-1.32A4.13,4.13,0,0,1,176,42.87c1.56-1,3.78-.84,4.52.5A13.14,13.14,0,0,1,181.35,46.31Zm-5.8-1.11h4.26c0-1.12-.7-1.51-1.51-1.77S176.29,43.91,175.55,45.2Z" fill="#047580"/><path d="M240.13,42.82l1.72-.49c-.42,2.42-.81,4.63-1.24,7.13a12.76,12.76,0,0,0-1.19-.57.78.78,0,0,0-.52,0c-1.69.86-3.32.84-4.15-.17-1-1.27-1.26-2.42-.2-4.35C235.71,42.32,238.3,41.45,240.13,42.82Zm0,2.65A2.34,2.34,0,0,0,238,43.34a3.32,3.32,0,0,0-2.84,3,2.16,2.16,0,0,0,2,2.13A3.14,3.14,0,0,0,240.09,45.47Z" fill="#047580"/><path d="M154.63,42.82l1.78-.51c-.44,2.48-.83,4.71-1.24,7.09L153.53,49a3.41,3.41,0,0,1-3.58.21c-1.76-1.05-2-3.16-.6-5.16C150.61,42.27,152.82,41.5,154.63,42.82Zm0,2.79a2.18,2.18,0,0,0-2-2.27c-1.2-.05-3,1.74-2.92,3a2.3,2.3,0,0,0,2.05,2.12A3.13,3.13,0,0,0,154.6,45.61Z" fill="#047580"/><path d="M121.15,42.85l1.66-.56c-.43,2.45-.81,4.65-1.25,7.14a6.32,6.32,0,0,0-1.18-.5,1.33,1.33,0,0,0-.75.19,3.44,3.44,0,0,1-3.58-.08,2.78,2.78,0,0,1-1.2-2.65C115.15,43.35,118.35,40.91,121.15,42.85ZM121,45.42a2.39,2.39,0,0,0-2-2.08,3.27,3.27,0,0,0-2.9,3,2.22,2.22,0,0,0,2,2.1A3.24,3.24,0,0,0,121,45.42Z" fill="#047580"/><path d="M89.56,49.27h-1.3a34,34,0,0,0,.65-3.51,3.44,3.44,0,0,0-.43-2.06c-.18-.26-1.13-.14-1.68,0-1,.27-1,1.21-1.23,2-.25,1.16-.45,2.32-.67,3.53H83.68c.49-2.84.95-5.65,1.49-8.44.07-.34.58-.59.89-.89l.38.25-.3,2.67a5.2,5.2,0,0,1,1.29-.57c1.67-.2,3,.32,2.82,2.46C90.1,46.23,89.8,47.71,89.56,49.27Z" fill="#047580"/><path d="M207.61,42.26c1.94-.13,3.41,1.47,2.95,3.87a4.41,4.41,0,0,1-5,3.39c-1.68-.27-2.67-2.38-2-4.36C204.09,43.68,206.18,42,207.61,42.26Zm1.71,3.08a2,2,0,0,0-1.84-2,3.24,3.24,0,0,0-2.87,2.93,2,2,0,0,0,2,2.16A3,3,0,0,0,209.32,45.34Z" fill="#047580"/><path d="M58.42,46.39c-.3-1.81,2.09-4.19,4.26-4.19a3.18,3.18,0,0,1,3,3c0,2.36-2.41,4.46-4.29,4.36A2.84,2.84,0,0,1,58.42,46.39Zm1.28.06a2,2,0,0,0,1.84,2,3.24,3.24,0,0,0,2.86-2.94,2,2,0,0,0-2-2.15A3,3,0,0,0,59.7,46.45Z" fill="#047580"/><path d="M183.49,42.34l1.4.49a4.73,4.73,0,0,1,1.32-.55c2.08-.32,3.14.95,2.66,3.06a18.82,18.82,0,0,0-.48,2.88c-.06,1-.44,1.27-1.44,1,.25-1.29.51-2.59.74-3.9a1.37,1.37,0,0,0-.81-1.74,2.27,2.27,0,0,0-1.68.27c-1.07.65-1,1.93-1.3,3a4.69,4.69,0,0,0-.22,1.33c0,1-.46,1.32-1.43,1C182.65,47,183.06,44.75,183.49,42.34Z" fill="#047580"/><path d="M141.51,49.28h-1.25c.4-2.27.78-4.48,1.2-6.84l1.61.26c1.36-.78,3-.69,3.57.54a4.67,4.67,0,0,1,.23,2.36c-.13,1.21-.43,2.4-.67,3.65H145l.52-3.09c0-.35.1-.69.13-1,.08-.8,0-1.51-1-1.65a1.63,1.63,0,0,0-2,1.05c-.34,1-.58,2.06-.84,3.1C141.66,48.16,141.6,48.71,141.51,49.28Z" fill="#047580"/><path d="M72.62,49.28H71.38c.23-1.21.43-2.35.67-3.49s0-2-.75-2.25a1.82,1.82,0,0,0-2.39,1.2c-.41,1.46-.69,3-1,4.52H66.7c.39-2.25.78-4.48,1.17-6.79a12,12,0,0,0,2.82-.15c2.07-.36,3.13,1.07,2.65,3.25C73.08,46.75,72.87,48,72.62,49.28Z" fill="#047580"/><path d="M59.37,40.22c-1.61,3-4.43,5.3-4.31,9-.31,0-.44.05-.58.05h-.93c1.55-3.31-.38-6.11-1-9.09C54,40,54,40,54.35,41.43c.24,1,.52,1.93.85,3.14.81-1.29,1.5-2.36,2.16-3.44C57.81,40.39,58.32,39.82,59.37,40.22Z" fill="#047580"/><path d="M211.43,47.21h.91c.48.51.75,1,1.15,1.15a1.32,1.32,0,0,0,1.08-.41c.35-.37.5-.89-.08-1.26a5.93,5.93,0,0,1-1.08-.61c-.42-.42-1-.92-1-1.45a2.34,2.34,0,0,1,1.85-2.31,4.29,4.29,0,0,1,2,.62c.19.11.12.71,0,1.37a6.79,6.79,0,0,0-1.15-.63c-.33-.12-.94-.23-1-.09a1.39,1.39,0,0,0-.12,1.14c.14.29.6.45,1,.59,1.43.61,1.39,1.93.66,3.19-.56,1-2.55,1.45-3.27.71A6.18,6.18,0,0,1,211.43,47.21Z" fill="#047580"/><path d="M167.33,41.41h-1.44c-.31-1.15-.22-1.28.88-1.29h3.82l-.26,1.22a1.1,1.1,0,0,1-.33.06c-1-.1-1.5,0-1.58,1.3a53.18,53.18,0,0,1-1,5.54c-.21,1.15-.19,1.15-1.45,1C166.42,46.64,166.87,44.07,167.33,41.41Z" fill="#047580"/><path d="M231.23,49.28H230c.33-1.92.66-3.78,1-5.68L230,43.47c.16-.37.29-.91.41-.9,1.27,0,.86-1.06,1.16-1.66a2.12,2.12,0,0,0,.06-.73h1.23l-.32,2.13,1.23.35L232.17,44C231.9,45.47,231.57,47.32,231.23,49.28Z" fill="#047580"/><path d="M243.89,49.27H242.7c.49-2.85,1-5.65,1.44-8.46.13-.84.63-.68,1.35-.64C245,43.2,244.43,46.2,243.89,49.27Z" fill="#047580"/><path d="M158.44,49.29h-1.16c.46-2.85.92-5.67,1.4-8.48.11-.68.56-.8,1.35-.58C159.51,43.23,159,46.22,158.44,49.29Z" fill="#047580"/><path d="M127.84,42.57c-.35.36-.63.84-1,1.06a2.49,2.49,0,0,0-1.25,1.94c-.23,1.22-.44,2.45-.66,3.69h-1.23c.35-2,.66-4,1-6,.06-.3.6-.8.68-.75.79.42,1.44-.11,2.14-.29Z" fill="#047580"/><path d="M172.84,42.51l-1.19,6.75h-1.21c.35-2,.72-3.86,1-5.77C171.64,42.5,171.59,42.49,172.84,42.51Z" fill="#047580"/><path d="M138.13,49.29h-1.19c.4-2.27.79-4.49,1.2-6.77l1.2-.05C138.93,44.76,138.54,47,138.13,49.29Z" fill="#047580"/><path d="M227.48,42.5h1.2c-.41,2.26-.8,4.49-1.21,6.76h-1.19C226.68,47,227.08,44.79,227.48,42.5Z" fill="#047580"/><path d="M228.89,40.16c.15,1.44.13,1.47-1.07,1.4C227.6,40.32,227.72,40.15,228.89,40.16Z" fill="#047580"/><path d="M173.1,40.22c.14,1.28,0,1.41-1.07,1.33C171.79,40.16,171.87,40.07,173.1,40.22Z" fill="#047580"/><path d="M138.43,41.57c-.1-1.39,0-1.48,1.12-1.35C139.72,41.59,139.69,41.62,138.43,41.57Z" fill="#047580"/><path d="M54.09,18.27V16.84H69.37c1,0,1.57.47,1.55,1.38H64.11l-.44,5.09h1.8c1.85,0,3.7,0,5.56,0,.59,0,.64.29.62.74s.06.84-.61.83c-2,0-4,0-6.05,0h-.84c.61,1.45,1.18,2.82,1.77,4.18s1.2,2.68,1.78,4a.91.91,0,0,0,.93.66c1,0,2.06,0,3.18,0a13.39,13.39,0,0,1-.4,1.41.57.57,0,0,1-.46.27c-1.34,0-2.68,0-4,0-.82,0-1.18-.64-1.49-1.32-.92-2-1.88-3.93-2.86-6a16.08,16.08,0,0,1-1.9,5.56,3.64,3.64,0,0,1-3.18,1.74c-.94,0-1.88,0-2.81,0-.69,0-1.07-.16-1.09-.9a3.12,3.12,0,0,0-.24-.71,3.13,3.13,0,0,1,.55-.09h1.27a3.37,3.37,0,0,0,3.65-2.57,25.71,25.71,0,0,0,1.42-5.65,4.67,4.67,0,0,1,.16-.61H53.54V23.45H56c1.38,0,2.77,0,4.15,0,.39,0,.63-.1.67-.5.11-1.08.19-2.16.29-3.25,0-.45.11-.91.17-1.44Z" fill="#047580"/><path d="M83.09,19.51l-.34-2.64h2.51l.39,2.64c1.63,0,3.29,0,4.94,0a6.38,6.38,0,0,1,1.58.16A1.25,1.25,0,0,1,93.29,21H85.91V26.4h6.6c.06.11.09.15.09.19,0,1.66.09,1.35-1.31,1.36-1.78,0-3.56,0-5.38,0v5.77h4c.89,0,1.78.05,2.67,0,.72-.05,1,.2.89.91a3.88,3.88,0,0,0,0,.6H75.53s-.06-.07-.06-.11c-.06-1.71-.07-1.37,1.28-1.38,2.11,0,4.22,0,6.38,0V28H80.64c-1.22,0-2.44,0-3.65,0-.67,0-.7-.31-.71-.82s.09-.76.69-.76c2,0,4.08,0,6.17,0V21.07H75.83c0-.11-.09-.15-.09-.19,0-1.66-.08-1.35,1.31-1.36C79,19.5,81,19.51,83.09,19.51Z" fill="#047580"/><path d="M217.6,27.39v1h5.76V33.6a1.6,1.6,0,0,1-1.84,1.81c-3.28,0-6.56,0-9.85,0h-5.44v-7h5.68v-1h-5.75c-.39,0-.69,0-.68-.55s.13-.61.56-.59,1.13,0,1.69,0h14.85c1,0,1.29.2,1.31,1.12Zm3.62,4.22c-.39,0-.69,0-1,0-1.14,0-2.28-.07-3.41-.14a1.28,1.28,0,0,1-1.34-1.41c0-.13,0-.26,0-.36H214c-.07,1.44-.23,1.67-1.43,1.9a3.3,3.3,0,0,1-.63,0h-3.6l.06.66h12.87Zm.05,1.58H208.34V34a1.39,1.39,0,0,0,.23,0h12C221.07,34,221.17,33.69,221.27,33.19Zm-9.34-3.5h-3.57v1.08H211C211.91,30.77,212,30.68,211.93,29.69Zm9.29,0h-3.59c-.09.48-.11.92.5.93,1,0,2,0,3.09,0Zm-5.77-1.34v-.92H214v.92Z" fill="#047580"/><path d="M106.16,22.49l-.06.68h-4.69l-.74,2.25c1.55,0,3,0,4.52,0,.3,0,.84.09.86.22a2,2,0,0,1-.11,1.25,15.92,15.92,0,0,1-1.44,1.77c-.2.24-.38.49-.64.84h2.51v1.23h-2.78c0,1.17,0,2.26,0,3.35,0,.93-.36,1.3-1.3,1.32s-1.92,0-2.88,0c-.63,0-1-.11-1.13-.77a2.49,2.49,0,0,0-.2-.51c.77,0,1.46,0,2.16,0,1.12-.07,1.23-.17,1.24-1.23,0-.68,0-1.36,0-2.11H97.31V29.5h4.17c-.19-1.32,1.06-1.79,1.48-2.81-1,0-1.93,0-2.88,0-.19,0-.39.2-.57.33a3.88,3.88,0,0,1-.81.62c-1,.42-1.42.2-1.58-.88,0-.29-.1-.57-.16-1,1.1.17,1.58-.36,1.75-1.33a9.05,9.05,0,0,1,.51-1.34H97.16V21.93h3V19.11H97.31V17.84h2.9c-.17-1,.33-1.09,1.05-1,.41,0,.83,0,1.3,0l.08.9c1,.4,2.65-.64,3,1.34h-3v2.79h1c.51-1.21.51-1.21,1.94-1l-.14,1,.68.05V20.82c.67,0,.89-.33.88-1a18.86,18.86,0,0,1,.14-2.5.77.77,0,0,1,.48-.5,7.83,7.83,0,0,1,1.29,0l.08,1.1h6.38v1.28h-6.22a22,22,0,0,1-.73,2.43C108,22.6,107.06,22.44,106.16,22.49Z" fill="#047580"/><path d="M191.48,22.75c.2-1.43.2-1.39,2-1.42,1.2,0,.48.92.83,1.42h5.26a3.3,3.3,0,0,1,.63,0c.67.14,1.21.44,1.23,1.32h-2.92l-1.06,3.17h4.29V28.5h-7.5v3.1h6.81v1.26h-6.86c0,.72,0,1.37,0,2,0,.39-.15.52-.54.54-2.12.12-2.12.13-2.14-2v-.56h-6.86V31.64h6.82V28.53H184V27.27h4.5c-.29-1-.54-1.92-.84-2.82,0-.14-.34-.27-.53-.28-.68,0-1.36,0-2,0s-.58-.29-.58-.71,0-.72.59-.71c1.88,0,3.75,0,5.63,0ZM191,27.23h3.83l1.07-3.06H190.2Z" fill="#047580"/><path d="M151.05,35.24V17.32h7.15V18c0,4.94,0,9.89,0,14.83,0,1.75-.63,2.47-2.42,2.41-1.49-.05-3,0-4.49,0Zm2.53-1.37h1.25c.91,0,1-.07,1-1V18.85h-2.23Z" fill="#047580"/><path d="M170.72,33.76a7.26,7.26,0,0,0,.78-.07.88.88,0,0,0,.79-1c0-1.35,0-2.71,0-4.14H170.9V27.28h1.4V21.36H171V20.11h1.35l-.15-3.22h2.28V20h2.23V16.88h2.12V20l1,.09v1.2l-.89.05v5.85l1,.07v1.2l-1.07.07v6.68h-2.1V28.57h-2.29v4.19c0,1.62-.57,2.25-2.18,2.37h-.14c-1.1.16-1.1.16-1.34-1C170.83,34.06,170.77,33.94,170.72,33.76Zm3.83-6.54h2.19V21.39h-2.19Z" fill="#047580"/><path d="M170.29,21.32v1.25H167.4v1.86h3.15v1.25h-3.2v9.56h-2.09V25.71H162V24.46h3.16V22.62h-2.86V21.35h2.87v-2h-2.07c-1.28,0-1.35-.11-.9-1.41h3l.08-1.09h2l.06.93c.95.18,1.88.3,2.78.55.21.06.31.52.54.94H167.4v2Z" fill="#047580"/><path d="M140.92,22.91V21.5h3.58V19.37h-2c-1.26,0-1.26,0-1.54-1.35h6.78l.27-1.14h2.24c.22,1.22.07,1.85-.8,2.19a13.27,13.27,0,0,1-2.46.44v2h3.31v1.39H147V35.23h-2.37V22.91Z" fill="#047580"/><path d="M211,18.81h3.57v1.11h-2V21h2.31v1H213c.14,1.28,1.11.95,1.83,1,.23,1,.17,1.08-.83,1.13s-2-.19-2.14-1.49c-.09,0-.14.05-.15.07-.48,1.38-1.58,1.5-2.79,1.4-.48,0-.49-.08-.43-1.06.68-.25,1.85.43,2-1h-1.95v-1h2.45V20l-2.45.54V19.31c.83-.16.87-.23.91-1.45h-1.66c0,1.84,0,3.66,0,5.48,0,1.39-.15,1.23,1.24,1.24h5.88V25.7h-2.29c-1.73,0-3.47,0-5.2,0a2.42,2.42,0,0,1-1-.17,1.09,1.09,0,0,1-.57-.69c0-2.69,0-5.38,0-8.14h8.48c.38,0,.81-.12.82.54s-.45.58-.86.58h-2.39C210.93,17.82,210.93,17.83,211,18.81Z" fill="#047580"/><path d="M115.62,35.27c-1,0-2.09,0-3.13,0a.86.86,0,0,1-.59-.47c-.34-.72-.62-1.47-.94-2.28-.34.78-.72,1.51-1,2.28a.83.83,0,0,1-.93.63c-.72,0-1.45,0-2.18,0s-.82-.17-.75-.76a5.81,5.81,0,0,0,0-.73,1.46,1.46,0,0,1,.49-.06c.95.22,1.41-.33,1.74-1.08.51-1.13,1-2.26,1.46-3.41a1.24,1.24,0,0,0-.1-.84c-.84-1.9-1.7-3.8-2.6-5.79a14.72,14.72,0,0,1,2,0c.25,0,.51.39.63.66.41.91.77,1.85,1.19,2.9.53-1.54,1-2.95,1.5-4.37a.6.6,0,0,1,.68-.5c.65,0,1.31,0,2.11,0-.33.78-.61,1.47-.91,2.16-.71,1.62-1.45,3.22-2.12,4.85a1.83,1.83,0,0,0,0,1.18c.39,1.13.84,2.23,1.3,3.33.19.46.37.91,1.07.88C115.82,33.83,115.82,33.88,115.62,35.27Z" fill="#047580"/><path d="M245.3,33.87v1.39c-1.31,0-2.61.05-3.91,0-.53,0-.73-.48-.72-1,0-1.81,0-3.61,0-5.42V28l-1.53-.23c-.16,1.11-.3,2.14-.44,3.18s-.25,2.1-.43,3.14a1.2,1.2,0,0,1-1.33,1.19c-.66,0-1.31,0-2,0l-.41-1.4a8,8,0,0,1,.85,0,.75.75,0,0,0,.86-.72c.19-1.26.3-2.52.45-3.78.05-.43.11-.87.18-1.42h-1.85c-.52,0-.44-.37-.44-.7s-.08-.7.43-.7h10.22v1.39h-2.63V30.7c0,.84,0,1.69,0,2.53,0,.5.17.66.66.64C243.94,33.84,244.59,33.87,245.3,33.87Z" fill="#047580"/><path d="M127.38,22.61h-7.06c-1.12,0-1.12,0-1.1-1.1,0-.11,0-.23,0-.4h10.5c0,.22,0,.44,0,.67,0,3.79,0,7.59,0,11.39,0,1.47-.53,2.21-2.13,2.11a11,11,0,0,0-1.9,0c-.68.06-1-.22-1-.86a3.83,3.83,0,0,0-.13-.56h2.23c.36,0,.58-.07.58-.5C127.37,29.81,127.38,26.25,127.38,22.61Z" fill="#047580"/><path d="M199.15,19.5v2c-.79,0-1.55,0-2.31,0-.13,0-.33-.29-.34-.47a13.49,13.49,0,0,1,0-1.43h-7c0,.47,0,.91,0,1.35s-.13.6-.57.59c-.67,0-1.35,0-2.1,0V19.53h-2.91V18.26h2.87V16.89h2.68v1.32h7V16.89h2.68v1.34h2.63V19.5Z" fill="#047580"/><path d="M118.57,33.76l.27,0c1.38,0,1.35-.06,1.86-1.4.77-2.08,1.59-4.15,2.39-6.22a1,1,0,0,0,0-.26h-4.31V24.44h1.43c1.5,0,3,0,4.5,0,.49,0,.61.16.67.64.18,1.65-.57,3.06-1.06,4.53s-1,2.76-1.44,4.16c-.38,1.21-1.08,1.39-2,1.51-.33,0-.66,0-1,0C118.81,35.27,118.51,34.94,118.57,33.76Z" fill="#047580"/><path d="M215.81,22.47a11.65,11.65,0,0,1,1.9,0,3.37,3.37,0,0,1,1.26.62c.31.23.5.24.77,0s.79-.77,1.33-1.3h-5.82c-.1-1-.1-1,.8-1,2.15,0,4.31,0,6.46,0a3.61,3.61,0,0,1,.83.21c-.12.36-.14.82-.38,1.05-.74.73-1.57,1.37-2.41,2.08,1,.81,2.12.25,3.19.51v1.09c-1.44-.21-2.93.39-4.35-.54-1.15,1-2.6.31-4,.56V24.62l2.55-.13.06-.28Z" fill="#047580"/><path d="M238.53,17.63l.06-.76h2.59l.09.75c.71.06,1.42.15,2.13.2a1.74,1.74,0,0,1,1.77,1.87c0,.56,0,1.13,0,1.79h-2.1V19H236.9v2.45h-2.28c.08-1.12-.33-2.3.66-3.22S237.41,17.83,238.53,17.63Z" fill="#047580"/><path d="M136.6,33.72l.16.19c-.28,1.36-.28,1.36-1.72,1.36h-.63c-1.39,0-2-.42-2.34-1.75-.47-1.92-.88-3.84-1.3-5.77a3.25,3.25,0,0,1,0-.64c.65,0,1.28,0,1.9,0a.74.74,0,0,1,.47.46c.45,1.77.88,3.55,1.27,5.34.14.61.39.88,1,.8A9.26,9.26,0,0,1,136.6,33.72Z" fill="#047580"/><path d="M140.75,34.29c0-.74,0-1.42,0-2.09,0-.27.34-.51.39-.79.13-.82.22-1.65.29-2.47.12-1.38.22-2.77.33-4.18h1.78c0,.86,0,1.73,0,2.59s-.18,2-.27,3-.18,2.12-.28,3.17c-.05.53-.3.79-.87.74A12.58,12.58,0,0,0,140.75,34.29Z" fill="#047580"/><path d="M220.4,17.85h-2.25v1.56a.68.68,0,0,1-.67.79c-.79,0-1.58,0-2.4,0v-.88s.08-.08.12-.08c1,0,1,.13,1-1.09,0-1.69-.23-1.45,1.44-1.46h4.86v2.49l1.12.07v1.09c-.72,0-1.42,0-2.11,0s-1.08-.45-1.09-1.24Z" fill="#047580"/><path d="M147.9,24.75h1.81c.18,3.21.35,6.4.53,9.63h-1.89c0-.35,0-.69,0-1,0-1.47-.08-2.93-.16-4.39S148,26.19,147.9,24.75Z" fill="#047580"/><path d="M122,16.91a2,2,0,0,1,.27-.06h2.35a1.81,1.81,0,0,1,.2.49c0,.59.4.64.85.64h7.46v1.27h-8.76c-1.41,0-1.79-.4-2-1.48A8,8,0,0,0,122,16.91Z" fill="#047580"/><path d="M135.89,20.92c-.33,1.29-.57,2.52-1,3.69a1.72,1.72,0,0,1-1,1.07,14.9,14.9,0,0,1-2.84.14c-.09,0-.24-.21-.28-.35-.1-.32-.15-.67-.23-1h1c1,0,1.07,0,1.33-1.07.17-.69.35-1.37.57-2a.63.63,0,0,1,.44-.39C134.51,20.89,135.14,20.92,135.89,20.92Z" fill="#047580"/><path d="M163,27.42h1.53c-.07,1.4-.12,2.76-.21,4.12-.06.85-.17,1.7-.24,2.55-.09,1.22-.21,1.34-1.4,1.32l-.54,0c.14-1.05.28-2.07.4-3.09.1-.77.2-1.55.27-2.33S163,28.3,163,27.42Z" fill="#047580"/><path d="M235.1,23.2h9.76v1.24H236.1C235,24.44,235,24.44,235.1,23.2Z" fill="#047580"/><path d="M168.47,35.41c-.1-1.4-.22-2.73-.27-4.06s0-2.69,0-4.07c0,0,0,0,0,0,1.66-.05,1.31-.09,1.38,1.3.1,2.13.27,4.25.38,6.37a.59.59,0,0,1-.36.45A6.2,6.2,0,0,1,168.47,35.41Z" fill="#047580"/><path d="M227.9,17.12c1.57,0,3.11,0,4.65,0,.62,0,1.17.65,1.19,1.57,0,1.84,0,3.69-.14,5.52a4.5,4.5,0,0,1-.73,1.5c.77.39.85,1.33.89,2.22.05,1.36,0,2.72,0,4.08s-.59,1.84-1.87,1.85h-1.76v1.36H227.9Zm2,1.45v6.15c.35,0,.65,0,1,0,.6,0,.87-.16.85-.83-.05-1.26,0-2.52,0-3.78C231.66,18.42,231.66,18.42,229.88,18.57Zm0,13.89h.6c1.06,0,1.19-.13,1.19-1.21v-3c0-1.69,0-1.69-1.71-1.52,0,0,0,0-.08.09Z" fill="#047580"/><path d="M41.33,14.63a9.73,9.73,0,0,0-2.1-2.35,6.75,6.75,0,0,0-2.31-1.51c-.51-.18-1-.37-1.56-.5a4.92,4.92,0,0,0-1.15-.1,19.06,19.06,0,0,0-2.27.1,14.31,14.31,0,0,0-1.5.46,3.59,3.59,0,0,0-1.29.7,8,8,0,0,0-1.36,1.22,12.08,12.08,0,0,0-1,1.56l-.19.29-1.27-1.75a2.17,2.17,0,0,0-.31-.42,6.66,6.66,0,0,0-2.35-1.59,12.79,12.79,0,0,0-1.44-.48c-.54-.1-1.11,0-1.67-.1a6.14,6.14,0,0,0-2.09.28,8.41,8.41,0,0,0-2,.7,7.36,7.36,0,0,0-1.61,1.17,12.2,12.2,0,0,0-1.67,1.85,5.29,5.29,0,0,0-1,3,9.26,9.26,0,0,0,.18,2.52,4.57,4.57,0,0,0,.86,1.77c.49.6,1,1.17,1.54,1.73,1,1,2,2.05,3,3.08.45.48.9.95,1.36,1.42q3.11,3.18,6.22,6.34c.6.62,1.18,1.26,1.77,1.89a.24.24,0,0,1,.1.15c0,.91,0,1.82,0,2.78A1.83,1.83,0,0,1,26,38.7L24.9,37.56c-2-2.06-4-4.12-6-6.16-1.14-1.13-2.32-2.21-3.46-3.34-1.6-1.6-3.2-3.21-4.77-4.84a7.34,7.34,0,0,1-1.25-1.88,8.74,8.74,0,0,1-.71-2,9.13,9.13,0,0,1-.11-2.81,6.9,6.9,0,0,1,.69-2.4,5.77,5.77,0,0,1,.9-1.33c.63-.7,1.33-1.35,2-2C13.59,9.29,15,7.83,16.46,6.38l1.83-1.83c.71-.73,1.39-1.48,2.13-2.18A8.67,8.67,0,0,1,24,.35a7.18,7.18,0,0,1,3-.3,12.06,12.06,0,0,1,2.3.56,7.05,7.05,0,0,1,2.61,1.66c1.18,1.15,2.34,2.32,3.51,3.48s2.49,2.42,3.7,3.67a19.21,19.21,0,0,1,1.31,1.64,4.82,4.82,0,0,1,.71,1.48,5.41,5.41,0,0,1,.22,1.83C41.37,14.43,41.35,14.48,41.33,14.63Z" fill="#eea88f"/><path d="M2.5,20.62c-.12.35-.24.7-.35,1.05a7.39,7.39,0,0,0-.41,2.94,7.18,7.18,0,0,0,1.49,4c.52.64,1.1,1.24,1.67,1.83.93,1,1.89,1.91,2.84,2.87s1.85,1.9,2.78,2.84c1.4,1.43,2.81,2.85,4.22,4.28,1.1,1.12,2.21,2.24,3.31,3.37.49.51.93,1.06,1.41,1.58.26.28.56.52.83.8s.66.75,1,1.11a7.78,7.78,0,0,0,1.89,1.38,15.13,15.13,0,0,0,1.57.76,9.06,9.06,0,0,0,1.16.33c.21,0,.34.11.34.38,0,.75,0,1.5,0,2.25,0,.32-.12.46-.43.42A15.51,15.51,0,0,1,24,52.5a6.85,6.85,0,0,1-1.53-.5,8.59,8.59,0,0,1-1.62-1c-.77-.65-1.48-1.38-2.21-2.07-1-.92-1.94-1.83-2.88-2.77-1.39-1.38-2.76-2.79-4.13-4.19-.42-.42-.83-.87-1.25-1.3L7.85,38.08,6.19,36.42c-1.25-1.27-2.52-2.53-3.75-3.82A8.31,8.31,0,0,1,.18,28.1a9.05,9.05,0,0,1-.17-2,8.17,8.17,0,0,1,1.54-4.43c.27-.38.59-.72.89-1.08Z" fill="#eea88f"/><path d="M5.31,17.79c-.19.57-.37,1.05-.52,1.54a5.92,5.92,0,0,0-.24,2.8A13.72,13.72,0,0,0,5,23.92a6.38,6.38,0,0,0,1.35,2.32q1,1.1,2.1,2.16c1.05,1,2.13,2.05,3.19,3.08l3.28,3.15c1,1,2.1,2,3.13,3,.83.81,1.61,1.66,2.44,2.47s1.82,1.75,2.73,2.62c.44.42.86.86,1.32,1.25s1.09.83,1.63,1.25a.3.3,0,0,1,.1.19q0,1.37,0,2.73a.61.61,0,0,1-.05.18l-1-.35A11.15,11.15,0,0,1,23,46.83L23,46.77l-.06-.07c-2.55-2.53-5.11-5.05-7.65-7.59-1.37-1.37-2.72-2.76-4.08-4.14-1-1-1.95-2-2.93-3-1.18-1.2-2.38-2.39-3.54-3.61A7.27,7.27,0,0,1,2.83,25a6.05,6.05,0,0,1,0-2.4A8,8,0,0,1,4,19.6C4.35,19,4.83,18.42,5.31,17.79Z" fill="#eea88f"/><path d="M26.26,43.76l-1-.85a1.14,1.14,0,0,1-.19-.19L20.6,38.41a24.68,24.68,0,0,0-1.89-1.8,34.61,34.61,0,0,1-2.88-2.67c-.82-.78-1.64-1.54-2.45-2.32l-2.1-2-1.7-1.64c-.58-.55-1.19-1.08-1.76-1.65A8.85,8.85,0,0,1,6,23.75a6.21,6.21,0,0,1-.55-3.53,8.68,8.68,0,0,1,1.95-4.3c.26-.33.52-.67.8-1.05-.21.57-.42,1.08-.57,1.61a6.4,6.4,0,0,0-.15,2.92,8.28,8.28,0,0,0,.8,2.4A9.15,9.15,0,0,0,9.89,24c2.27,2.29,4.56,4.57,6.84,6.85.51.51,1,1,1.49,1.55l6.18,6.3,1.74,1.8a.33.33,0,0,1,.11.2C26.26,41.71,26.26,42.69,26.26,43.76Z" fill="#eea88f"/><g style="mix-blend-mode:multiply"><rect x="23.42" y="24.4" width="22.85" height="3.43" rx="1" fill="#1e4746"/><rect x="32.47" y="15.99" width="4.47" height="36.81" rx="1" fill="#1e4746"/></g><rect x="22.42" y="23.4" width="22.85" height="3.43" rx="1" fill="#78cdd0"/><rect x="31.47" y="14.99" width="4.47" height="36.81" rx="1" fill="#78cdd0"/></g></svg>